<?xml version="1.0" standalone="no"?>
<!DOCTYPE svg PUBLIC "-//W3C//DTD SVG 20010904//EN"
 "http://www.w3.org/TR/2001/REC-SVG-20010904/DTD/svg10.dtd">
<svg version="1.0" xmlns="http://www.w3.org/2000/svg"
 width="594.000000pt" height="594.000000pt" viewBox="0 0 594.000000 594.000000"
 preserveAspectRatio="xMidYMid meet">
<metadata>
Created by potrace 1.14, written by Peter Selinger 2001-2017
</metadata>
<g transform="translate(0.000000,594.000000) scale(0.100000,-0.100000)"
fill="#000000" stroke="none">
<path d="M2730 4365 c0 -8 -4 -15 -10 -15 -5 0 -10 -7 -10 -16 0 -9 -5 -12
-11 -8 -7 4 -10 1 -7 -7 3 -8 1 -22 -4 -32 -5 -10 -12 -31 -14 -45 -3 -15 -9
-29 -14 -32 -5 -3 -10 -20 -12 -38 -1 -18 -5 -32 -9 -32 -3 0 -5 -12 -4 -27 1
-16 -2 -33 -6 -38 -4 -6 -6 -40 -3 -75 2 -36 5 -80 6 -97 1 -18 5 -33 8 -33 6
0 8 -7 12 -47 0 -10 5 -20 9 -23 4 -3 9 -17 11 -30 2 -14 19 -52 38 -85 19
-33 37 -64 39 -69 15 -36 209 -226 230 -226 5 0 11 -3 13 -8 4 -11 114 -83
171 -112 26 -14 47 -28 47 -32 0 -5 9 -8 19 -8 11 0 27 -7 35 -16 9 -8 25 -17
37 -19 12 -3 29 -11 39 -20 9 -8 22 -15 29 -15 6 0 35 -12 63 -26 28 -14 68
-32 87 -39 20 -7 54 -21 76 -31 22 -10 42 -18 45 -19 13 -4 48 -19 80 -33 19
-9 37 -17 40 -18 48 -12 287 -134 357 -181 71 -49 153 -129 153 -150 0 -7 4
-13 9 -13 12 0 50 -97 54 -138 2 -17 7 -35 10 -39 4 -3 7 -17 7 -30 0 -20 2
-22 13 -11 14 15 47 80 44 89 -1 3 4 13 12 22 7 10 10 17 6 17 -4 0 -3 6 2 13
5 6 8 53 6 102 -4 112 -4 115 -16 115 -5 0 -7 7 -3 15 3 8 -2 21 -10 30 -9 8
-12 15 -9 15 10 0 -43 88 -74 123 -55 62 -71 78 -71 70 0 -4 -11 4 -24 20 -13
15 -26 27 -30 27 -6 0 -35 23 -61 48 -8 6 -16 12 -20 12 -4 0 -25 13 -48 28
-23 16 -63 39 -89 52 -27 13 -48 27 -48 32 0 4 -5 8 -12 8 -15 0 -262 123
-266 133 -2 4 -8 7 -13 7 -10 0 -180 81 -189 90 -6 6 -39 25 -85 49 -16 9 -35
21 -42 26 -33 26 -40 31 -65 44 -75 39 -280 235 -322 310 -5 9 -12 18 -15 21
-8 7 -29 40 -43 70 -7 14 -15 27 -18 30 -11 9 -54 105 -54 120 0 8 -4 18 -9
21 -5 4 -10 18 -10 33 -1 14 -5 26 -9 26 -3 0 -10 19 -14 43 -4 23 -9 45 -10
50 -1 4 -2 14 -3 22 0 8 -5 15 -11 15 -5 0 -10 -7 -10 -15z"/>
<path d="M3114 4173 c-15 -5 -9 -154 6 -163 5 -3 12 -21 14 -39 2 -18 9 -37
16 -41 6 -4 11 -11 11 -16 -1 -5 6 -17 14 -27 8 -9 15 -22 15 -27 0 -6 5 -10
12 -10 6 0 8 -3 5 -6 -6 -6 39 -53 107 -111 54 -47 275 -174 303 -174 4 0 16
-8 26 -16 9 -9 17 -13 17 -9 0 3 17 -2 38 -13 20 -10 84 -37 142 -61 149 -59
166 -68 255 -126 76 -50 168 -128 160 -136 -2 -2 4 -4 15 -5 13 -1 18 4 17 18
-1 10 -4 19 -8 19 -4 0 -6 13 -5 30 1 17 -4 32 -12 35 -8 3 -10 10 -5 17 11
19 12 38 2 38 -6 0 -5 8 1 20 6 11 7 20 2 20 -10 0 -8 48 2 57 3 3 1 14 -4 23
-7 13 -6 20 6 24 8 3 13 10 9 15 -7 12 29 73 38 64 4 -3 7 -2 7 3 0 12 81 15
95 4 17 -13 156 -42 260 -54 48 -6 77 -11 120 -21 84 -19 113 -29 141 -45 45
-28 60 -11 24 28 -12 12 -18 22 -14 22 5 0 -19 36 -61 88 -10 13 -64 66 -131
130 -19 17 -38 32 -43 32 -5 0 -16 6 -23 13 -22 22 -108 78 -108 71 0 -4 -8 0
-17 8 -10 9 -29 19 -43 23 -14 4 -41 16 -61 26 -37 18 -170 57 -224 64 -16 3
-51 9 -77 13 -34 7 -46 6 -41 -2 3 -6 0 -5 -8 2 -16 14 -79 16 -79 2 0 -10 2
-11 36 -15 12 -1 31 -9 43 -17 20 -14 12 -16 -106 -20 -72 -2 -137 -9 -148
-16 -11 -6 -18 -12 -15 -12 11 -3 47 -9 84 -15 52 -8 106 -34 106 -51 0 -8 5
-14 11 -14 6 0 9 -7 5 -15 -3 -8 -1 -15 5 -15 22 0 -13 -39 -45 -50 -141 -46
-228 -24 -511 129 -42 23 -146 92 -170 112 -65 56 -85 75 -137 125 -31 30 -57
57 -57 60 1 9 -5 12 -17 7z"/>
<path d="M2684 3392 c6 -31 13 -64 23 -107 4 -16 6 -33 5 -37 -1 -5 3 -8 8 -8
6 0 10 -7 10 -15 0 -8 4 -15 8 -15 5 0 9 -6 9 -13 0 -40 138 -196 229 -258 27
-18 51 -37 52 -41 2 -4 8 -6 13 -2 5 3 9 0 9 -7 0 -7 3 -9 6 -6 4 4 19 -2 33
-12 25 -17 225 -101 241 -101 5 0 21 -5 37 -11 15 -7 35 -13 43 -15 62 -13
216 -60 218 -66 2 -4 16 -8 31 -8 15 0 31 -4 36 -9 6 -5 24 -11 40 -14 17 -3
64 -18 105 -34 96 -38 114 -45 119 -43 2 1 7 -2 10 -7 3 -4 31 -21 61 -37 30
-16 59 -35 63 -43 4 -7 13 -13 18 -13 6 0 26 -15 45 -32 73 -69 83 -78 87 -78
2 0 3 16 3 35 -1 19 -4 35 -8 35 -5 0 -8 10 -8 21 0 28 -53 136 -86 174 -62
74 -136 145 -149 145 -3 0 -15 9 -27 20 -20 18 -49 34 -163 85 -58 27 -226 85
-263 91 -15 3 -31 9 -37 13 -5 5 -23 12 -40 16 -37 10 -34 9 -68 23 -16 7 -31
12 -33 12 -5 0 -42 14 -149 55 -11 5 -23 7 -27 7 -5 -1 -8 2 -8 7 0 5 -10 11
-22 15 -13 3 -23 4 -23 3 0 -1 -14 8 -31 20 -17 12 -34 20 -38 16 -3 -3 -6 -2
-6 4 0 6 -11 14 -25 17 -14 4 -25 10 -25 15 0 4 -18 16 -40 26 -22 10 -40 22
-40 27 0 4 -5 8 -11 8 -6 0 -16 6 -23 13 -8 6 -39 30 -71 52 -32 22 -69 52
-82 67 -14 14 -33 28 -44 31 -17 5 -19 1 -15 -21z"/>
<path d="M1841 2872 c-56 -36 -37 -59 24 -28 23 12 33 12 72 -1 33 -11 48 -12
56 -4 8 8 8 11 -2 11 -8 0 -21 9 -30 19 -28 32 -74 33 -120 3z"/>
<path d="M1914 2821 c-2 -2 -40 -3 -84 -3 -73 1 -103 -10 -66 -24 11 -4 14
-29 14 -105 0 -89 -3 -101 -21 -114 -20 -14 -19 -14 15 -13 19 1 40 -2 46 -6
7 -4 12 -4 12 1 0 4 47 7 105 7 58 -1 102 2 99 7 -3 5 -2 9 3 9 4 0 8 11 8 24
0 37 -31 40 -61 7 -20 -23 -31 -27 -70 -26 -51 2 -62 12 -60 58 1 28 5 32 32
35 18 2 38 -3 46 -12 23 -22 53 -14 54 15 0 14 3 30 7 36 11 17 -29 22 -52 6
-12 -8 -35 -13 -53 -11 -27 3 -32 7 -33 31 -1 42 8 50 60 49 34 -1 55 -8 70
-22 32 -30 52 -26 53 11 0 17 -5 32 -13 36 -17 6 -105 10 -111 4z"/>
<path d="M1416 2805 c3 -7 12 -11 20 -8 9 3 14 -2 15 -13 0 -11 1 -34 2 -52 1
-17 -2 -32 -8 -32 -7 0 -7 -3 0 -8 6 -4 9 -16 9 -27 -1 -11 -2 -35 -3 -52 -1
-22 -6 -33 -15 -33 -8 0 -18 -5 -21 -10 -4 -7 14 -9 54 -7 34 2 61 0 61 -4 0
-4 9 -5 19 -2 12 3 17 11 14 19 -3 8 -9 12 -13 9 -13 -8 -26 19 -26 54 1 30 5
35 29 38 16 2 34 -3 43 -12 9 -8 26 -15 39 -15 21 0 24 4 22 35 -3 49 -18 60
-48 37 -21 -15 -40 -19 -77 -13 -8 1 -8 68 -1 76 4 4 56 8 80 6 8 -1 24 -9 35
-18 27 -26 51 -27 64 -3 7 13 7 20 1 20 -6 0 -8 7 -5 15 5 12 -17 14 -145 14
-125 1 -149 -2 -145 -14z"/>
<path d="M2109 2799 c22 -18 24 -27 25 -114 1 -82 -1 -95 -16 -99 -41 -10 -15
-25 44 -25 51 1 60 3 47 13 -11 7 -16 26 -16 52 0 22 -3 45 -6 51 -4 7 -3 14
3 18 7 4 7 12 0 25 -9 17 -8 18 7 13 10 -4 27 -18 39 -32 79 -94 130 -137 159
-137 l30 1 0 113 c-1 85 2 112 12 112 7 0 13 7 13 15 0 12 -14 15 -62 15 l-63
0 28 -25 c26 -25 36 -42 18 -31 -5 3 -7 -18 -5 -49 2 -30 1 -55 -2 -55 -3 0
-41 36 -85 80 l-79 80 -57 0 -58 -1 24 -20z"/>
<path d="M2510 2811 c0 -5 9 -12 20 -16 17 -5 19 -15 19 -103 -1 -87 -3 -99
-22 -114 -21 -17 -19 -17 58 -17 75 1 79 2 58 16 -21 14 -23 23 -23 114 0 89
2 98 20 104 11 4 18 10 15 15 -7 11 -145 12 -145 1z"/>
<path d="M2690 2809 c0 -5 4 -9 8 -9 4 0 34 -26 66 -57 l58 -57 -45 -41 c-25
-22 -58 -50 -73 -61 l-29 -22 63 -1 c57 0 63 1 57 18 -6 20 35 71 57 70 7 0
24 -14 37 -30 23 -29 23 -31 5 -45 -17 -12 -12 -14 48 -11 37 2 69 0 70 -4 2
-4 9 -1 16 7 10 11 10 14 -2 14 -15 0 -126 101 -126 115 0 12 76 85 89 85 6 0
11 5 11 10 0 6 10 10 23 10 14 0 18 3 10 8 -7 5 -43 9 -80 10 -65 1 -67 1 -48
-16 11 -9 19 -16 17 -15 -2 1 -16 -13 -31 -30 l-28 -31 -27 27 c-29 30 -33 47
-10 47 8 0 12 4 9 10 -7 12 -145 11 -145 -1z"/>
<path d="M838 2478 c-11 -6 -10 -10 0 -17 15 -9 15 -20 1 -38 -7 -7 -6 -14 1
-18 7 -4 7 -12 0 -25 -17 -31 -13 -33 64 -28 82 5 108 21 110 66 1 31 -10 46
-44 57 -34 11 -117 13 -132 3z m124 -34 c5 -3 4 -11 -2 -19 -8 -10 -8 -15 0
-20 16 -10 -19 -34 -49 -35 -18 0 -22 4 -18 20 3 11 1 20 -4 20 -4 0 -6 7 -4
15 3 8 7 22 10 30 3 12 10 13 31 5 15 -6 31 -13 36 -16z"/>
<path d="M1034 2478 c-3 -4 0 -8 5 -8 14 0 14 -87 1 -95 -25 -15 7 -25 80 -25
73 0 79 2 77 20 -1 23 -15 25 -51 9 -30 -14 -58 -5 -50 15 5 14 27 16 40 4 13
-14 34 6 34 33 0 18 5 28 13 27 6 -2 12 3 12 11 0 11 -18 15 -78 16 -43 0 -80
-3 -83 -7z m116 -24 c0 -15 -33 -24 -50 -14 -9 6 -8 10 5 17 23 13 45 12 45
-3z"/>
<path d="M1240 2477 c-37 -19 -30 -39 22 -66 27 -12 45 -27 42 -32 -7 -13 -54
-11 -54 2 0 6 -8 9 -17 7 -10 -2 -18 -10 -18 -18 0 -11 13 -16 47 -18 95 -6
120 41 42 78 -34 15 -44 24 -36 32 8 8 18 8 37 0 34 -16 45 -15 45 2 0 27 -66
35 -110 13z"/>
<path d="M1370 2479 c0 -4 4 -10 8 -13 10 -6 8 -74 -3 -98 -6 -16 0 -18 69
-18 63 0 77 3 85 19 9 16 7 18 -17 15 -15 -2 -38 -6 -52 -9 -21 -5 -26 -3 -27
14 -2 19 2 20 39 15 40 -7 41 -6 35 18 -5 20 -3 27 11 30 10 3 19 11 19 19 0
11 -20 14 -84 14 -46 1 -83 -2 -83 -6z m113 -18 c4 -1 7 -5 7 -10 0 -12 -35
-20 -50 -11 -17 11 -4 29 18 25 9 -2 20 -4 25 -4z"/>
<path d="M1566 2480 c-11 -4 -15 -9 -9 -13 13 -8 16 -97 3 -97 -5 0 -10 -4
-10 -10 0 -5 13 -10 29 -10 17 0 33 5 36 10 3 6 2 10 -3 10 -5 0 -9 14 -8 30
0 17 3 30 6 30 3 0 21 -18 40 -40 51 -58 67 -54 69 17 0 33 6 60 13 65 7 4 11
8 8 9 -3 0 -14 2 -24 4 -11 2 -27 0 -35 -5 -10 -6 -11 -10 -4 -10 17 0 13 -47
-4 -47 -7 0 -11 2 -9 5 6 5 -43 47 -64 54 -8 3 -24 2 -34 -2z"/>
<path d="M1750 2480 c0 -4 7 -13 15 -20 8 -7 15 -18 15 -25 0 -17 29 -73 42
-81 13 -8 59 16 52 28 -3 4 0 8 5 8 6 0 11 7 11 15 0 8 5 15 11 15 5 0 8 4 4
9 -3 5 7 19 21 30 28 22 28 23 -24 25 -36 2 -51 -8 -26 -18 13 -5 12 -9 -5
-27 -11 -12 -18 -26 -15 -30 3 -5 -2 -6 -10 -3 -9 3 -14 10 -11 14 3 5 -3 16
-12 26 -13 12 -14 19 -5 22 25 8 11 17 -28 18 -22 1 -40 -2 -40 -6z"/>
<path d="M1984 2477 c-27 -15 -34 -27 -34 -64 0 -42 30 -63 91 -63 40 0 51 4
73 31 32 37 32 38 4 75 -19 25 -31 30 -69 31 -25 0 -54 -4 -65 -10z m90 -29
c9 -9 16 -23 16 -30 -1 -39 -71 -65 -85 -31 -27 62 23 106 69 61z"/>
<path d="M2150 2478 c0 -4 4 -8 9 -8 5 0 9 -22 8 -50 0 -27 -4 -50 -9 -50 -4
0 -8 -4 -8 -10 0 -6 33 -10 78 -10 75 0 79 1 77 23 -1 12 -9 23 -20 25 -9 2
-15 0 -11 -6 3 -5 -1 -13 -10 -16 -24 -9 -46 -7 -39 4 3 6 1 10 -5 10 -8 0 -9
7 -5 18 4 9 8 31 10 48 3 30 1 31 -36 30 -22 0 -39 -4 -39 -8z"/>
<path d="M2307 2483 c-3 -2 5 -15 17 -28 13 -13 29 -42 36 -65 20 -60 46 -55
93 20 20 33 44 60 53 60 10 0 14 -6 10 -15 -3 -8 -2 -15 2 -15 4 0 8 -9 8 -20
0 -11 -5 -20 -11 -20 -5 0 -3 -5 5 -10 11 -7 11 -10 2 -10 -7 0 -11 -4 -8 -9
4 -5 0 -12 -6 -14 -7 -3 9 -6 35 -6 36 -1 46 2 40 12 -11 16 -12 107 -1 107 4
0 8 4 8 8 0 9 -157 8 -167 -1 -3 -4 -1 -7 5 -7 7 0 12 -7 12 -15 0 -8 -4 -15
-10 -15 -5 0 -10 -9 -10 -20 0 -26 -22 -16 -37 17 -10 21 -10 28 0 35 6 4 8 8
2 9 -40 5 -75 6 -78 2z"/>
<path d="M2623 2483 c-7 -2 -9 -12 -5 -21 8 -21 6 -72 -3 -94 -6 -15 -1 -18
29 -18 34 0 35 1 26 25 -12 31 -3 32 27 3 22 -21 23 -21 43 -3 11 10 20 24 20
32 0 8 4 11 10 8 11 -7 9 -33 -3 -52 -6 -10 3 -13 33 -13 27 0 39 4 35 11 -4
6 -7 37 -6 69 1 58 0 59 -27 56 -18 -2 -35 -14 -51 -39 -23 -35 -41 -40 -41
-11 0 8 -4 14 -9 14 -5 0 -12 8 -15 18 -6 16 -37 24 -63 15z"/>
<path d="M2874 2418 l0 -68 73 0 c66 0 73 2 73 20 0 21 -24 28 -35 10 -3 -5
-17 -10 -31 -10 -17 0 -24 5 -24 20 0 23 0 23 34 10 24 -9 26 -8 26 20 0 29
-13 40 -25 20 -8 -13 -35 -1 -35 15 0 14 44 15 57 2 13 -13 31 -7 29 10 -2 15
-14 18 -72 18 l-69 1 -1 -68z"/>
<path d="M3034 2478 c-3 -4 2 -8 10 -8 15 0 22 -21 16 -45 -2 -5 -2 -19 -2
-30 1 -10 -4 -25 -10 -32 -8 -10 -3 -13 26 -13 39 0 41 2 27 29 -6 10 -8 27
-5 38 5 19 10 16 46 -23 53 -58 75 -58 75 -1 -1 23 2 54 6 68 6 24 4 26 -22
25 -31 -1 -56 -16 -28 -16 15 0 15 -5 8 -60 -1 -3 -16 12 -35 34 -27 29 -43
39 -71 41 -19 1 -38 -2 -41 -7z"/>
<path d="M3250 2463 c0 -16 4 -21 15 -17 8 4 15 9 15 13 0 18 30 5 32 -13 4
-59 2 -72 -12 -83 -12 -10 -7 -12 32 -13 38 0 46 3 42 15 -4 8 -11 15 -18 15
-7 0 -7 3 -1 8 15 11 17 32 5 47 -15 18 3 27 32 16 25 -9 32 -11 48 -11 7 0 7
-6 0 -20 -8 -15 -8 -20 1 -20 7 0 10 -3 6 -6 -3 -3 2 -14 10 -24 11 -13 29
-18 67 -17 51 0 101 21 90 38 -3 5 0 18 6 29 8 14 8 20 0 20 -6 0 -9 4 -6 9 3
5 -4 15 -17 23 -30 20 -110 17 -135 -5 -24 -22 -32 -22 -32 1 0 15 -11 17 -90
17 -87 1 -90 0 -90 -22z m313 -2 c4 0 7 -19 7 -41 0 -34 -4 -41 -25 -46 -34
-8 -54 10 -53 49 1 42 12 48 71 38z"/>
<path d="M3894 2468 c-4 -7 -3 -8 4 -4 8 5 12 -1 12 -14 0 -12 5 -18 10 -15 6
3 10 -2 10 -13 0 -10 3 -22 7 -26 21 -21 38 -110 35 -183 -5 -132 -1 -315 7
-308 2 2 17 -15 35 -38 31 -41 154 -133 164 -122 3 2 4 53 3 112 -1 60 -2 154
-3 211 -1 56 -5 102 -9 102 -4 0 -6 8 -4 18 1 9 0 22 -4 27 -3 6 -7 19 -8 30
-2 11 -8 22 -13 23 -6 2 -10 9 -10 15 0 7 -14 27 -31 45 -16 17 -27 32 -23 32
8 0 -54 49 -115 90 -50 33 -57 35 -67 18z"/>
<path d="M3744 2357 c-6 -7 -19 -26 -30 -42 -24 -36 -97 -105 -132 -124 -15
-8 -33 -20 -41 -28 -12 -12 -51 -33 -71 -38 -3 0 -34 -15 -70 -31 -68 -33 -96
-44 -106 -43 -4 0 -10 -3 -13 -8 -3 -5 -35 -22 -71 -37 -190 -84 -426 -212
-475 -259 -7 -7 -23 -22 -36 -34 -33 -30 -49 -50 -49 -63 0 -5 -4 -10 -10 -10
-5 0 -7 -7 -4 -15 4 -8 1 -15 -5 -15 -6 0 -11 -16 -11 -35 0 -19 3 -35 7 -35
8 0 92 48 113 65 23 18 130 59 300 116 167 55 317 116 338 135 6 7 22 16 34
20 57 18 225 167 266 236 9 15 19 28 23 28 4 0 10 11 13 25 4 14 11 25 16 25
6 0 10 6 10 13 0 6 6 24 14 39 14 26 19 59 17 106 -1 24 -10 28 -27 9z"/>
<path d="M3864 2203 c-10 -16 -19 -31 -19 -35 0 -4 -8 -16 -17 -28 -10 -11
-15 -20 -13 -20 6 0 -6 -17 -37 -51 -10 -10 -19 -22 -20 -26 -7 -25 -197 -213
-214 -213 -3 0 -11 -6 -18 -12 -8 -7 -24 -20 -36 -28 -12 -8 -28 -20 -35 -27
-7 -7 -24 -15 -38 -18 -14 -4 -28 -13 -31 -22 -3 -8 -10 -12 -15 -8 -5 3 -12
1 -16 -5 -5 -9 -41 -27 -195 -98 -30 -14 -61 -27 -69 -28 -8 -1 -17 -7 -20
-12 -3 -5 -28 -19 -56 -31 -42 -19 -147 -81 -194 -116 -7 -5 -43 -39 -80 -75
-75 -72 -114 -123 -103 -134 4 -4 1 -6 -7 -4 -8 2 -14 -6 -16 -20 -1 -13 -6
-27 -11 -30 -5 -4 -11 -18 -12 -32 -2 -14 -7 -29 -11 -35 -10 -13 -12 -54 -6
-83 l6 -22 23 25 c13 14 26 25 30 25 6 0 35 23 61 48 8 6 18 12 23 12 5 0 20
9 33 21 13 12 49 34 79 50 131 71 219 115 265 136 124 55 145 64 152 64 5 0
16 8 27 17 10 9 20 16 22 15 11 -7 143 65 223 122 49 35 151 134 151 147 0 5
5 6 10 3 6 -3 10 1 10 9 0 9 5 16 10 16 6 0 10 6 10 13 0 8 9 22 20 32 11 10
20 24 20 32 0 7 5 13 11 13 5 0 7 5 4 10 -3 6 -2 10 4 10 5 0 15 16 22 35 7
19 17 35 22 35 4 0 5 5 2 10 -3 6 -1 10 5 10 6 0 10 6 8 13 -1 6 3 22 10 35 7
12 10 22 6 22 -3 0 -1 7 6 15 7 8 9 15 5 15 -4 0 -3 6 3 13 6 7 13 29 15 48 2
19 7 41 12 48 6 10 4 12 -6 6 -12 -8 -12 -6 -1 8 14 16 23 107 11 107 -4 0
-15 -12 -25 -27z"/>
</g>
</svg>
