<svg xmlns="http://www.w3.org/2000/svg" xmlns:xlink="http://www.w3.org/1999/xlink" width="20" height="20" viewBox="0 0 20 20">
  <defs>
    <clipPath id="clip-path">
      <rect id="Rectangle_23" data-name="Rectangle 23" width="20" height="20" transform="translate(562 3339)" fill="#6b6666"/>
    </clipPath>
  </defs>
  <g id="location" transform="translate(-562 -3339)" clip-path="url(#clip-path)">
    <g id="location-2" data-name="location" transform="translate(564.896 3339)">
      <g id="Icon-Location" transform="translate(0)">
        <path id="Fill-55" d="M-130.4-213.15l-.381-.465c-.254-.338-6.723-7.907-6.723-12.431a7.119,7.119,0,0,1,7.1-7.1,7.146,7.146,0,0,1,7.1,7.1c0,1.982-1.241,4.555-2.766,7.022a49,49,0,0,1-3.957,5.41l-.381.465Zm0-19.027a6.09,6.09,0,0,0-6.089,6.089c0,3.552,4.693,9.6,6.089,11.332,1.4-1.734,6.089-7.738,6.089-11.332a6.09,6.09,0,0,0-6.089-6.089Z" transform="translate(137.505 233.15)" fill="#6b6666"/>
        <path id="Fill-56" d="M-128.2-221.142a2.725,2.725,0,0,1-2.706-2.706,2.725,2.725,0,0,1,2.706-2.706,2.725,2.725,0,0,1,2.706,2.706,2.725,2.725,0,0,1-2.706,2.706Zm0-4.4a1.7,1.7,0,0,0-1.691,1.691,1.7,1.7,0,0,0,1.691,1.691,1.7,1.7,0,0,0,1.691-1.691,1.7,1.7,0,0,0-1.691-1.691Z" transform="translate(135.307 230.951)" fill="#6b6666"/>
      </g>
    </g>
  </g>
</svg>
