<svg xmlns="http://www.w3.org/2000/svg" width="19.905" height="20" viewBox="0 0 19.905 20">
  <g id="Group_14" data-name="Group 14" transform="translate(-140.048 -4237)">
    <path id="whatsapp" d="M.047,20l1.406-5.136A9.91,9.91,0,1,1,5.3,18.622L.047,20Zm5.5-3.173A8.218,8.218,0,1,0,3.259,14.6l-.832,3.04,3.118-.817Zm9.489-4.553c-.062-.1-.227-.165-.475-.289s-1.465-.723-1.693-.806-.392-.124-.557.124-.64.806-.784.971-.289.186-.537.062A6.759,6.759,0,0,1,9,11.107,7.454,7.454,0,0,1,7.619,9.391c-.144-.247-.015-.382.108-.505s.247-.289.372-.434a1.624,1.624,0,0,0,.25-.413.455.455,0,0,0-.021-.434c-.062-.123-.557-1.342-.763-1.838s-.406-.417-.557-.425l-.475-.008a.907.907,0,0,0-.66.31,2.779,2.779,0,0,0-.867,2.066,4.819,4.819,0,0,0,1.011,2.562,11.041,11.041,0,0,0,4.23,3.739,14.328,14.328,0,0,0,1.412.522,3.4,3.4,0,0,0,1.56.1,2.551,2.551,0,0,0,1.672-1.178,2.063,2.063,0,0,0,.144-1.178Z" transform="translate(140 4237)" fill="#6b6666"/>
  </g>
</svg>
